<?xml version="1.0" encoding="UTF-8" standalone="no"?>
<!-- Created with Inkscape (http://www.inkscape.org/) -->

<svg
   xmlns:dc="http://purl.org/dc/elements/1.1/"
   xmlns:cc="http://creativecommons.org/ns#"
   xmlns:rdf="http://www.w3.org/1999/02/22-rdf-syntax-ns#"
   xmlns:svg="http://www.w3.org/2000/svg"
   xmlns="http://www.w3.org/2000/svg"
   xmlns:sodipodi="http://sodipodi.sourceforge.net/DTD/sodipodi-0.dtd"
   xmlns:inkscape="http://www.inkscape.org/namespaces/inkscape"
   width="71mm"
   height="24mm"
   viewBox="0 0 251.57466 85.039325"
   id="svg2"
   version="1.1"
   inkscape:version="0.91 r13725"
   sodipodi:docname="logo.svg">
  <defs
     id="defs4" />
  <sodipodi:namedview
     id="base"
     pagecolor="#ffffff"
     bordercolor="#666666"
     borderopacity="1.0"
     inkscape:pageopacity="0.0"
     inkscape:pageshadow="2"
     inkscape:zoom="1.6062188"
     inkscape:cx="-70.150001"
     inkscape:cy="-155.39638"
     inkscape:document-units="px"
     inkscape:current-layer="layer1"
     showgrid="false"
     inkscape:window-width="2560"
     inkscape:window-height="1323"
     inkscape:window-x="0"
     inkscape:window-y="36"
     inkscape:window-maximized="1" />
  <metadata
     id="metadata7">
    <rdf:RDF>
      <cc:Work
         rdf:about="">
        <dc:format>image/svg+xml</dc:format>
        <dc:type
           rdf:resource="http://purl.org/dc/dcmitype/StillImage" />
        <dc:title />
      </cc:Work>
    </rdf:RDF>
  </metadata>
  <g
     inkscape:label="Ebene 1"
     inkscape:groupmode="layer"
     id="layer1"
     transform="translate(0,-967.32265)">
    <g
       id="g3493"
       transform="matrix(0.13962218,0,0,0.13962218,13.915514,974.12476)">
      <g
         id="g3452"
         style="fill:#431fbe;fill-opacity:1">
        <g
           id="camera"
           style="fill:#431fbe;fill-opacity:1">
          <path
             id="path3455"
             d="M 188.7,216.75 311.1,5.1 C 293.25,2.55 272.85,0 255,0 193.8,0 137.7,20.4 94.35,58.65 l 94.35,160.65 0,-2.55 z M 497.25,178.5 C 474.3,104.55 418.2,43.35 344.25,17.85 l -91.8,160.65 244.8,0 z m 7.65,25.5 -191.25,0 7.649,12.75 L 443.7,428.4 C 484.5,382.5 510,321.3 510,255 c 0,-17.85 -2.55,-35.7 -5.1,-51 z M 165.75,255 66.3,81.6 C 25.5,127.5 0,188.7 0,255 c 0,17.85 2.55,35.7 5.1,51 l 191.25,0 -30.6,-51 z m -153,76.5 c 22.95,73.95 79.05,135.15 153,160.65 l 94.35,-160.65 -247.35,0 0,0 z m 285.6,0 -99.45,173.4 c 17.85,5.1 35.7,5.1 56.1,5.1 61.2,0 117.3,-20.4 160.65,-58.65 L 321.3,290.7 298.35,331.5 Z"
             inkscape:connector-curvature="0"
             style="fill:#431fbe;fill-opacity:1" />
        </g>
      </g>
      <g
         id="g3457" />
      <g
         id="g3459" />
      <g
         id="g3461" />
      <g
         id="g3463" />
      <g
         id="g3465" />
      <g
         id="g3467" />
      <g
         id="g3469" />
      <g
         id="g3471" />
      <g
         id="g3473" />
      <g
         id="g3475" />
      <g
         id="g3477" />
      <g
         id="g3479" />
      <g
         id="g3481" />
      <g
         id="g3483" />
      <g
         id="g3485" />
    </g>
    <text
       xml:space="preserve"
       style="font-style:normal;font-variant:normal;font-weight:normal;font-stretch:normal;font-size:40px;line-height:125%;font-family:STIX;-inkscape-font-specification:STIX;letter-spacing:0px;word-spacing:0px;opacity:0.99800002;fill:#431fbe;fill-opacity:1;stroke:none;stroke-width:1px;stroke-linecap:butt;stroke-linejoin:miter;stroke-opacity:1"
       x="84.82444"
       y="1024.4553"
       id="text3513"
       sodipodi:linespacing="125%"><tspan
         sodipodi:role="line"
         id="tspan3515"
         x="84.82444"
         y="1024.4553"
         style="font-style:normal;font-variant:normal;font-weight:normal;font-stretch:normal;font-family:Waree;-inkscape-font-specification:Waree;fill:#431fbe;fill-opacity:1">143158</tspan></text>
  </g>
</svg>
